<?xml version="1.0" encoding="UTF-8"?>
<svg version="1.1" xmlns="http://www.w3.org/2000/svg" width="1000" height="1000">
<path d="M0 0 C330 0 660 0 1000 0 C1000 330 1000 660 1000 1000 C670 1000 340 1000 0 1000 C0 670 0 340 0 0 Z " fill="#FEFEFE" transform="translate(0,0)"/>
<path d="M0 0 C13.53 0 27.06 0 41 0 C41 316.8 41 633.6 41 960 C357.47 960 673.94 960 1000 960 C1000 973.2 1000 986.4 1000 1000 C670 1000 340 1000 0 1000 C0 670 0 340 0 0 Z " fill="#FF9900" transform="translate(0,0)"/>
<path d="M0 0 C0.64560379 -0.00817749 1.29120758 -0.01635498 1.95637512 -0.02478027 C4.10209211 -0.04967815 6.24774262 -0.06616372 8.39355469 -0.08056641 C9.49159046 -0.08855192 9.49159046 -0.08855192 10.61180878 -0.09669876 C14.48842829 -0.12345299 18.36501538 -0.14281809 22.24169922 -0.15722656 C26.24465871 -0.17385529 30.24679177 -0.21861011 34.24943924 -0.26959801 C37.3275648 -0.3032794 40.40549478 -0.31480503 43.48378754 -0.32045364 C44.95899501 -0.3271668 46.43418957 -0.34239088 47.90921783 -0.36634445 C49.97791901 -0.39801427 52.04440069 -0.39803182 54.11328125 -0.390625 C55.28940979 -0.39871185 56.46553833 -0.40679871 57.67730713 -0.41513062 C61.74876877 0.3737027 63.19644849 2.05753756 65.81542969 5.19287109 C67.32250977 7.44335938 67.32250977 7.44335938 68.58496094 9.76318359 C69.07270996 10.64530518 69.56045898 11.52742676 70.06298828 12.4362793 C70.83763428 13.86266724 70.83763428 13.86266724 71.62792969 15.31787109 C76.5102348 24.13381036 81.5259513 32.85166868 86.69042969 41.50537109 C93.36518723 52.70873709 99.91681561 63.97510426 106.41308594 75.28271484 C109.85262812 81.26910126 113.32961387 87.2333358 116.81542969 93.19287109 C123.73469459 82.13914064 130.27630839 70.87517058 136.83105469 59.60253906 C142.77445269 49.39024865 148.74724193 39.19527083 154.74346924 29.01391602 C155.82435376 27.17771089 156.90368496 25.34059875 157.98291016 23.50341797 C160.04313214 19.99872455 162.11595421 16.50164666 164.19042969 13.00537109 C164.8148999 11.9419751 165.43937012 10.8785791 166.08276367 9.78295898 C166.66227783 8.81092529 167.24179199 7.8388916 167.83886719 6.83740234 C168.34337402 5.98509033 168.84788086 5.13277832 169.36767578 4.25463867 C170.81542969 2.19287109 170.81542969 2.19287109 173.81542969 0.19287109 C176.67507935 -0.05436707 176.67507935 -0.05436707 180.19873047 -0.05004883 C181.51664581 -0.05312546 182.83456116 -0.05620209 184.19241333 -0.05937195 C185.63185806 -0.05247522 187.07130106 -0.04520833 188.51074219 -0.03759766 C189.98379476 -0.03640564 191.45684809 -0.03595274 192.92990112 -0.03620911 C196.0150021 -0.03464539 199.09998685 -0.02636281 202.18505859 -0.01293945 C206.14765095 0.00408007 210.11011593 0.00787399 214.07274055 0.00711536 C217.11295802 0.00738668 220.15314741 0.01286112 223.19335556 0.02011681 C224.65505638 0.0233074 226.11676039 0.02527179 227.57846451 0.02601051 C229.61596057 0.02816823 231.65344487 0.03769688 233.69091797 0.04760742 C234.85213165 0.05141922 236.01334534 0.05523102 237.20974731 0.05915833 C239.81542969 0.19287109 239.81542969 0.19287109 240.81542969 1.19287109 C240.91706987 3.80092077 240.95273127 6.38262009 240.94685745 8.99128532 C240.94891009 9.82222023 240.95096272 10.65315514 240.95307755 11.50926989 C240.95879052 14.32991467 240.95728506 17.15051129 240.95587158 19.97116089 C240.95845276 21.99928822 240.96146522 24.02741505 240.96487498 26.05554116 C240.97297728 31.65706682 240.97473634 37.25857969 240.97547245 42.86011052 C240.97731741 48.89020335 240.98486186 54.92028945 240.99160767 60.95037842 C241.00592417 74.83712523 241.01172038 88.72386892 241.01629961 102.61062125 C241.01863327 109.46836954 241.02223565 116.326117 241.02599499 123.18386464 C241.03883203 146.64459832 241.04955139 170.10533153 241.05299759 193.56606865 C241.05321922 195.03957868 241.05344101 196.51308871 241.05366294 197.98659874 C241.05388358 199.46372998 241.05410407 200.94086123 241.05432439 202.41799247 C241.05476695 205.38152623 241.05521406 208.34505999 241.05566406 211.30859375 C241.05582815 212.41077491 241.05582815 212.41077491 241.05599555 213.53522236 C241.05962765 237.37047422 241.07555268 261.2056957 241.09885443 285.04093592 C241.12342796 310.22297963 241.13716926 335.40500595 241.13836551 360.587062 C241.13853697 363.34925151 241.1387524 366.11144102 241.13899994 368.87363052 C241.13905571 369.55379179 241.13911148 370.23395306 241.13916893 370.93472527 C241.14032151 381.89961381 241.151361 392.86447127 241.16588699 403.8293493 C241.18022452 414.84204622 241.1832512 425.85471153 241.17544702 436.86741744 C241.17152474 442.83832095 241.17254653 448.80911946 241.18650436 454.78001022 C241.19914927 460.23893667 241.19812942 465.69767822 241.18591365 471.15660407 C241.1839402 473.1384466 241.18711008 475.12030182 241.19575801 477.10212646 C241.20672004 479.78257172 241.19945682 482.46234919 241.18736649 485.14277458 C241.19496168 485.92394565 241.20255687 486.70511672 241.21038222 487.50995964 C241.15939306 492.69570056 241.15939306 492.69570056 239.44634318 495.17177212 C237.06315869 496.6638606 235.18019325 496.58148198 232.38183594 496.59692383 C230.71495728 496.61595009 230.71495728 496.61595009 229.0144043 496.63536072 C227.81436768 496.63242508 226.61433105 496.62948944 225.37792969 496.62646484 C223.53050171 496.63432762 223.53050171 496.63432762 221.64575195 496.64234924 C218.37196329 496.65042483 215.0985921 496.64329 211.8248291 496.63201904 C209.81725006 496.63037259 207.81023625 496.64235927 205.80273438 496.65942383 C201.95252798 496.6900149 198.10323777 496.69351421 194.25292969 496.68896484 C193.05289307 496.70019882 191.85285645 496.7114328 190.61645508 496.7230072 C189.50520264 496.71362625 188.3939502 496.7042453 187.24902344 496.69458008 C186.2698999 496.69441391 185.29077637 496.69424774 184.28198242 496.69407654 C181.81542969 496.19287109 181.81542969 496.19287109 180.1853177 494.56224418 C178.39900166 491.47261268 178.43655331 489.34533422 178.43066883 485.78169632 C178.42551892 485.13718732 178.42036902 484.49267831 178.41506305 483.82863873 C178.40140253 481.66008185 178.40914031 479.49212658 178.41670227 477.32354736 C178.41126518 475.75679085 178.40451461 474.19003844 178.39656037 472.62329268 C178.3784836 468.31108604 178.37909839 463.99905114 178.38268983 459.6868155 C178.38331222 455.03923379 178.36670734 450.39171044 178.35217285 445.74415588 C178.32935182 437.68966494 178.31749571 429.63521734 178.31304359 421.58069611 C178.30659077 409.93515836 178.28366871 398.28969908 178.2567003 386.6441929 C178.21339652 367.75108755 178.18345029 348.85798548 178.16186523 329.96484375 C178.1408663 311.60968403 178.11360069 293.2545513 178.07788086 274.89941406 C178.07568203 273.76839363 178.07348321 272.6373732 178.07121775 271.47207943 C178.06014837 265.79819875 178.04895551 260.12431833 178.03770125 254.45043802 C177.94446532 207.3646062 177.87289092 160.27875925 177.81542969 113.19287109 C177.22984535 114.2429409 177.22984535 114.2429409 176.63243103 115.31422424 C174.82885344 118.54664054 173.0233239 121.77796266 171.21777344 125.00927734 C170.60397827 126.11001587 169.99018311 127.21075439 169.35778809 128.34484863 C165.45370138 135.32792491 161.46916356 142.25532486 157.37792969 149.13037109 C156.53875755 150.5407238 156.53875755 150.5407238 155.68263245 151.97956848 C154.92465614 153.2530439 154.92465614 153.2530439 154.15136719 154.55224609 C150.54380299 160.62836906 147.02264984 166.75307715 143.50292969 172.88037109 C138.42715982 181.70429951 133.31055968 190.50271909 128.13052368 199.26577759 C127.42674958 200.45653328 126.72375241 201.64774853 126.02157593 202.83944702 C125.04390522 204.49779575 124.06255404 206.15397299 123.08105469 207.81005859 C122.52192383 208.75478027 121.96279297 209.69950195 121.38671875 210.67285156 C119.96720522 212.94945484 118.46313576 215.07767343 116.81542969 217.19287109 C115.95865885 215.72412109 115.10188802 214.25537109 114.24511719 212.78662109 C113.68574463 211.82771973 113.12637207 210.86881836 112.55004883 209.88085938 C111.29134188 207.72302881 110.03271797 205.56514981 108.77416992 203.40722656 C105.61663343 197.99352443 102.458118 192.58040233 99.29589844 187.16943359 C93.31113077 176.92509042 87.35531167 166.66523786 81.44042969 156.38037109 C75.35842985 145.80549252 69.16887731 135.29783844 62.91748047 124.82250977 C62.2792334 123.75105713 61.64098633 122.67960449 60.98339844 121.57568359 C60.41903076 120.63096191 59.85466309 119.68624023 59.27319336 118.71289062 C58.0331366 116.56921857 56.91022739 114.41224191 55.81542969 112.19287109 C55.81445288 112.99791637 55.81347607 113.80296165 55.81246966 114.63240224 C55.75424615 162.30534227 55.68048628 209.97823656 55.58644341 257.65112009 C55.57517472 263.37035913 55.56403636 269.08959843 55.55297852 274.80883789 C55.55077483 275.94747519 55.54857115 277.08611248 55.54630069 278.25925394 C55.51089127 296.71591989 55.48604773 315.17258579 55.46508267 333.62927315 C55.4433496 352.55589261 55.41032303 371.48246783 55.36672813 390.40904969 C55.34016833 402.09553683 55.32250488 413.78196882 55.31608365 425.46848466 C55.31084297 433.47337781 55.29467067 441.47820146 55.26976403 449.48305742 C55.25570358 454.10714645 55.24659507 458.73111094 55.25042152 463.3552227 C55.25381465 467.58370312 55.24356657 471.81191686 55.22219417 476.04034259 C55.21689598 477.574697 55.21672282 479.10907889 55.22203406 480.64343325 C55.22849455 482.72044837 55.21672916 484.79656919 55.20019054 486.87350941 C55.19829194 488.02975781 55.19639334 489.18600622 55.19443721 490.37729245 C54.81542969 493.19287109 54.81542969 493.19287109 53.44554168 495.0636012 C51.07655235 496.70473282 49.24559245 496.58112109 46.38183594 496.59692383 C44.71495728 496.61595009 44.71495728 496.61595009 43.0144043 496.63536072 C41.81436768 496.63242508 40.61433105 496.62948944 39.37792969 496.62646484 C37.53050171 496.63432762 37.53050171 496.63432762 35.64575195 496.64234924 C32.37196329 496.65042483 29.0985921 496.64329 25.8248291 496.63201904 C23.81725006 496.63037259 21.81023625 496.64235927 19.80273438 496.65942383 C15.95252798 496.6900149 12.10323777 496.69351421 8.25292969 496.68896484 C7.05289307 496.70019882 5.85285645 496.7114328 4.61645508 496.7230072 C3.50520264 496.71362625 2.3939502 496.7042453 1.24902344 496.69458008 C0.2698999 496.69441391 -0.70922363 496.69424774 -1.71801758 496.69407654 C-4.18457031 496.19287109 -4.18457031 496.19287109 -5.81548381 494.67139119 C-7.74243965 491.18293464 -7.59445966 487.91764745 -7.55650711 484.03534412 C-7.56026824 483.20203686 -7.56402937 482.3687296 -7.56790447 481.51017061 C-7.57689479 478.69938177 -7.56437265 475.88909389 -7.55206299 473.07832336 C-7.5540861 471.05030518 -7.55742399 469.02228794 -7.56196856 466.99427384 C-7.57064413 461.40700922 -7.56052565 455.81990994 -7.54742622 450.2326597 C-7.53655657 444.21288277 -7.54293661 438.19312161 -7.54721069 432.17333984 C-7.55220118 421.73864801 -7.54618506 411.30399958 -7.53232574 400.86931801 C-7.51780403 389.92318647 -7.50903999 378.97707679 -7.50814056 368.03093529 C-7.50807947 367.3506591 -7.50801838 366.67038292 -7.50795543 365.9694923 C-7.50772592 363.20823768 -7.50753874 360.44698306 -7.50740729 357.68572843 C-7.50619548 332.51320875 -7.49048911 307.34071967 -7.46582031 282.16821289 C-7.44252024 258.38761152 -7.42835286 234.60702872 -7.42480469 210.82641602 C-7.42469317 210.09364373 -7.42458166 209.36087145 -7.42446676 208.60589394 C-7.42401792 205.65172411 -7.42357594 202.69755428 -7.42313434 199.74338445 C-7.42291396 198.27128879 -7.42269267 196.79919313 -7.42247046 195.32709747 C-7.4222491 193.85868273 -7.42203033 192.39026798 -7.42181415 190.92185324 C-7.41830245 167.56280002 -7.4068419 144.2037503 -7.39400782 120.84470058 C-7.39028518 113.99970824 -7.38702135 107.15471613 -7.38475895 100.30972314 C-7.37995588 85.91279394 -7.37275516 71.51587436 -7.35661128 57.11895219 C-7.34998428 51.16248972 -7.34493516 45.20603721 -7.34415054 39.24957085 C-7.34336796 33.80633975 -7.33800427 28.36313394 -7.32883105 22.91991069 C-7.3263072 20.94156131 -7.32549607 18.96320893 -7.32648984 16.98485819 C-7.32757307 14.31416677 -7.3226112 11.64355638 -7.31599808 8.97287464 C-7.31776755 8.18891143 -7.31953702 7.40494823 -7.32136011 6.59722856 C-7.29249687 -0.15000942 -6.59296902 0.07228661 0 0 Z " fill="#010164" transform="translate(144.1845703125,413.80712890625)"/>
<path d="M0 0 C1.12812103 -0.0159874 2.25624207 -0.03197479 3.41854858 -0.04844666 C5.25445053 -0.05649071 5.25445053 -0.05649071 7.12744141 -0.06469727 C8.38029938 -0.07372574 9.63315735 -0.08275421 10.92398071 -0.09205627 C13.57886112 -0.10658837 16.23331034 -0.11624798 18.88818359 -0.11914062 C22.28712137 -0.12452239 25.68486939 -0.16218586 29.0834713 -0.20788479 C32.32722429 -0.24481852 35.57100635 -0.24616997 38.81494141 -0.25219727 C40.03482758 -0.27172958 41.25471375 -0.2912619 42.51156616 -0.31138611 C50.80901738 -0.26693219 50.80901738 -0.26693219 54.25976562 2.22167969 C56.11560968 6.48041372 57.05589516 10.66333244 57.90087891 15.22045898 C58.19251923 16.6981929 58.19251923 16.6981929 58.49005127 18.20578003 C59.12546205 21.44508638 59.73986874 24.68799514 60.35400391 27.93139648 C60.7955975 30.20570176 61.23831994 32.47978811 61.68212891 34.75366211 C64.74098518 50.49552 67.66897716 66.26267091 70.56396484 82.03540039 C73.10138469 95.82177221 75.82947535 109.56597405 78.60400391 123.30639648 C81.90505458 139.65433804 85.07636959 156.01766226 88.08349609 172.42211914 C90.96837401 188.136804 94.07778064 203.80118012 97.24145508 219.46188354 C100.68771608 236.5354395 103.95930886 253.63552778 107.09228516 270.76928711 C107.2478186 271.61752548 107.40335205 272.46576385 107.56359863 273.33970642 C107.84841528 274.89519334 108.13169892 276.45096228 108.41296387 278.00709534 C108.79736848 280.10952329 109.19594057 282.20843572 109.60400391 284.30639648 C109.76022217 285.11793182 109.91644043 285.92946716 110.07739258 286.76559448 C110.24279541 287.57368561 110.40819824 288.38177673 110.57861328 289.21435547 C110.72665405 289.94951889 110.87469482 290.68468231 111.02722168 291.44212341 C111.51335277 293.52675831 111.51335277 293.52675831 113.60400391 295.30639648 C116.60400391 295.72306315 116.60400391 295.72306315 119.60400391 295.30639648 C121.45168022 292.53488201 121.96297219 291.34714405 122.54614258 288.22265625 C122.70386139 287.39669449 122.8615802 286.57073273 123.02407837 285.71974182 C123.27053604 284.37238197 123.27053604 284.37238197 123.52197266 282.99780273 C123.69981293 282.05690292 123.8776532 281.11600311 124.06088257 280.14659119 C124.44378331 278.11628312 124.82352775 276.08537782 125.20046997 274.05395508 C125.7968581 270.84004294 126.4013047 267.62774209 127.00805664 264.41577148 C127.82683498 260.07918161 128.64285004 255.74208788 129.45654297 251.40454102 C130.9978379 243.19958126 132.5735552 235.0014683 134.16650391 226.80639648 C134.30493713 226.09288025 134.44337036 225.37936401 134.58599854 224.64422607 C137.02773264 212.07434179 139.59547997 199.53154564 142.18292236 186.9909668 C145.8344033 169.28534336 149.27407379 151.54243727 152.65576172 133.78344727 C153.8246749 127.64500886 154.99494313 121.50683013 156.16650391 115.36889648 C156.36280396 114.34014404 156.559104 113.3113916 156.76135254 112.25146484 C159.03444481 100.3500788 161.34545341 88.46345163 163.86425781 76.61132812 C165.36792542 69.51512891 166.78084083 62.40328611 168.15914917 55.28167725 C168.53803031 53.32434142 168.91878681 51.36736892 169.29956055 49.41040039 C170.50997212 43.16092365 171.68522453 36.90748486 172.78437805 30.63739014 C173.30064388 27.69448889 173.82691153 24.75340434 174.35305786 21.81225586 C174.60139141 20.40470318 174.84423658 18.99616986 175.08126831 17.58666992 C175.41142699 15.62376446 175.76123709 13.66419529 176.11181641 11.70483398 C176.40016357 10.0291333 176.40016357 10.0291333 176.69433594 8.31958008 C177.8495352 4.49309878 178.4193972 2.81897188 181.60400391 0.30639648 C185.86531882 -0.42147214 190.08047396 -0.32124873 194.39306641 -0.25219727 C195.64783783 -0.24986588 196.90260925 -0.24753448 198.19540405 -0.24513245 C200.8474386 -0.23538755 203.49732076 -0.21631858 206.14892578 -0.18066406 C209.54990011 -0.13529871 212.95010946 -0.12063301 216.35135841 -0.11692715 C219.59451509 -0.11143963 222.83749618 -0.08806781 226.08056641 -0.06469727 C227.91646835 -0.05665321 227.91646835 -0.05665321 229.78945923 -0.04844666 C231.48164078 -0.02446556 231.48164078 -0.02446556 233.20800781 0 C234.20410065 0.0106398 235.20019348 0.0212796 236.22647095 0.03224182 C238.60400391 0.30639648 238.60400391 0.30639648 240.60400391 2.30639648 C241.34247339 7.99531242 240.37450186 13.72447679 239.20556641 19.29077148 C239.05543091 20.04275314 238.90529541 20.7947348 238.75061035 21.56950378 C238.42338156 23.20445656 238.09233811 24.83864956 237.75787354 26.47213745 C236.82420195 31.0344135 235.91965592 35.60251397 235.01025391 40.16967773 C234.81529327 41.14469742 234.62033264 42.1197171 234.41946411 43.12428284 C232.31059427 53.70233151 230.33267521 64.304281 228.3526001 74.90704346 C224.81111271 93.85748457 221.15546671 112.78136876 217.35400391 131.68139648 C217.03523285 133.26649017 217.03523285 133.26649017 216.71002197 134.88360596 C215.88718339 138.97398048 215.06407484 143.06430056 214.24057007 147.15454102 C210.82162141 164.14947817 207.56313932 181.17409708 204.36962891 198.21264648 C203.53152271 202.68147829 202.692932 207.1502189 201.85400391 211.61889648 C201.64132874 212.75225433 201.42865356 213.88561218 201.20953369 215.05331421 C197.88399831 232.75395158 194.40934115 250.42047126 190.84432983 268.07427979 C187.82150572 283.05517138 184.94488756 298.05541429 182.19134521 313.08795166 C179.32773154 328.69481057 176.24169335 344.25251894 173.10400391 359.80639648 C169.81338097 376.11852642 166.59955289 392.43742808 163.60400391 408.80639648 C160.47809384 425.88171629 157.13961459 442.91070814 153.72900391 459.93139648 C153.48762695 461.13723389 153.24625 462.34307129 152.99755859 463.58544922 C152.3080541 467.02660484 151.6167145 470.46738452 150.92431641 473.90795898 C150.71944611 474.92793976 150.51457581 475.94792053 150.30349731 476.99880981 C149.92124685 478.89142544 149.53471932 480.78318424 149.14312744 482.67388916 C148.78652974 484.41513399 148.44555055 486.15965769 148.12103271 487.90716553 C147.96443176 488.70712952 147.80783081 489.50709351 147.64648438 490.33129883 C147.51660126 491.02895355 147.38671814 491.72660828 147.25289917 492.44540405 C146.42839358 494.8100363 145.63666773 495.83426428 143.60400391 497.30639648 C141.21337891 497.69407654 141.21337891 497.69407654 138.35400391 497.71044922 C136.7471875 497.72947548 136.7471875 497.72947548 135.10791016 497.74888611 C133.95162109 497.74595047 132.79533203 497.74301483 131.60400391 497.73999023 C130.41677734 497.74523209 129.22955078 497.75047394 128.00634766 497.75587463 C125.49463687 497.76230206 122.98289601 497.76094859 120.47119141 497.75244141 C116.61908635 497.74392981 112.76846242 497.77268833 108.91650391 497.80444336 C106.47900435 497.8060553 104.04150216 497.80547797 101.60400391 497.80249023 C100.44771484 497.81372421 99.29142578 497.82495819 98.10009766 497.83653259 C97.02888672 497.82715164 95.95767578 497.81777069 94.85400391 497.80810547 C93.43861328 497.80785622 93.43861328 497.80785622 91.99462891 497.80760193 C89.60400391 497.30639648 89.60400391 497.30639648 87.81890869 495.41114807 C86.49977587 493.12582751 85.94800159 491.30218539 85.46337891 488.71264648 C85.28395752 487.78524658 85.10453613 486.85784668 84.91967773 485.90234375 C84.63966919 484.36984985 84.63966919 484.36984985 84.35400391 482.80639648 C84.14348389 481.70674561 83.93296387 480.60709473 83.71606445 479.47412109 C83.25115661 477.04385257 82.79068434 474.61273253 82.33398438 472.1809082 C81.19528686 466.13705215 80.01851618 460.10065718 78.84335327 454.06381226 C78.40935629 451.8321425 77.97691659 449.60017495 77.54467773 447.36816406 C74.93263282 433.89889087 72.23970745 420.44613356 69.54150391 406.99389648 C65.02980497 384.48489831 60.59875746 361.9640985 56.36962891 339.40014648 C55.53152271 334.93131468 54.692932 330.46257406 53.85400391 325.99389648 C53.64132874 324.86053864 53.42865356 323.72718079 53.20953369 322.55947876 C49.88520022 304.86523872 46.41118811 287.20525048 42.84835815 269.55764771 C39.91920556 255.03640827 37.1016843 240.49972904 34.41650391 225.93139648 C34.17013687 224.59543427 34.17013687 224.59543427 33.91879272 223.23248291 C33.75585724 222.34889099 33.59292175 221.46529907 33.42504883 220.55493164 C33.10193777 218.80280658 32.77877759 217.05069058 32.45556641 215.29858398 C32.29846695 214.44692657 32.14136749 213.59526917 31.97950745 212.71780396 C30.45856767 204.48919711 28.88981941 196.27030228 27.29150391 188.05639648 C27.15474243 187.35332367 27.01798096 186.65025085 26.8770752 185.9258728 C24.95430975 176.05990936 22.98469746 166.2035315 21.00244141 156.34936523 C20.05693628 151.64758102 19.11159543 146.94576385 18.16650391 142.24389648 C17.92797699 141.05759644 17.68945007 139.87129639 17.44369507 138.64904785 C14.20961908 122.54690198 11.08812601 106.43033571 8.14208984 90.27307129 C6.10833161 79.12861138 3.95979672 68.01320207 1.70166016 56.91186523 C1.45072601 55.67489899 1.19979187 54.43793274 0.94125366 53.16348267 C-0.29529161 47.07446781 -1.54188378 40.98777667 -2.80419922 34.90405273 C-7.90533872 10.06723312 -7.90533872 10.06723312 -7.39599609 2.30639648 C-4.78358798 -0.30601163 -3.64193003 0.03890141 0 0 Z " fill="#000064" transform="translate(698.39599609375,412.693603515625)"/>
<path d="M0 0 C0.85058817 -0.00782324 1.70117635 -0.01564648 2.57753992 -0.02370679 C3.51225547 -0.01701463 4.44697103 -0.01032246 5.41001129 -0.00342751 C6.40276109 -0.00810748 7.39551089 -0.01278745 8.41834402 -0.01760924 C11.76030498 -0.02961951 15.10186043 -0.02007835 18.44382477 -0.01066017 C20.83346039 -0.01472319 23.22309414 -0.02006354 25.6127243 -0.02659035 C31.43872629 -0.03887641 37.2645984 -0.03704144 43.09060442 -0.02835242 C47.82449904 -0.02158383 52.55836115 -0.02065558 57.29225922 -0.02392387 C58.30196943 -0.02461342 58.30196943 -0.02461342 59.33207783 -0.0253169 C60.69944705 -0.02627605 62.06681625 -0.02724869 63.43418545 -0.02823468 C76.26321323 -0.03679421 89.09217677 -0.02694563 101.92119402 -0.01083358 C112.93479192 0.00257013 123.94829498 0.0002422 134.96189117 -0.01358986 C147.74426095 -0.02963576 160.52657437 -0.03597018 173.30895281 -0.02675307 C174.67135905 -0.0257974 176.03376531 -0.02485428 177.39617157 -0.02392387 C178.06654327 -0.02346105 178.73691496 -0.02299822 179.42760095 -0.02252137 C184.15711828 -0.0199285 188.88659995 -0.02430885 193.61611176 -0.03136253 C199.97888149 -0.04000592 206.34147148 -0.03405838 212.70422173 -0.01667976 C215.04439431 -0.01270085 217.38458193 -0.0138728 219.72474861 -0.02046776 C222.90951229 -0.02861783 226.09369333 -0.01844078 229.27841949 -0.00342751 C230.21313505 -0.01011967 231.1478506 -0.01681184 232.11089087 -0.02370679 C233.38677313 -0.01197193 233.38677313 -0.01197193 234.68843079 0 C235.42384173 0.00048706 236.15925267 0.00097411 236.9169488 0.00147593 C239.41044584 0.48800608 240.30318347 1.39259421 241.84421539 3.37752342 C242.22516632 5.80611229 242.22516632 5.80611229 242.23239899 8.7193203 C242.24185547 9.81055199 242.25131195 10.90178368 242.26105499 12.02608299 C242.25194595 13.79332726 242.25194595 13.79332726 242.24265289 15.59627342 C242.24695816 17.41040733 242.24695816 17.41040733 242.2513504 19.26119041 C242.25339325 21.81999237 242.24784807 24.37880987 242.23532867 26.93758202 C242.21927918 30.86192696 242.23517102 34.78524189 242.25437164 38.70955467 C242.25238925 41.19262987 242.24854566 43.67570443 242.24265289 46.15877342 C242.24872559 47.33693626 242.25479828 48.51509911 242.26105499 49.72896385 C242.24687027 51.36581139 242.24687027 51.36581139 242.23239899 53.03572655 C242.23001221 53.99708519 242.22762543 54.95844383 242.22516632 55.94893456 C241.84421539 58.37752342 241.84421539 58.37752342 240.77953815 60.0067625 C237.865265 62.07089972 234.93866608 61.7808006 231.49810028 61.73828697 C230.36719492 61.74213188 230.36719492 61.74213188 229.21344298 61.74605447 C226.67975117 61.7510074 224.1466514 61.73447497 221.61301422 61.71809959 C219.79978703 61.71725365 217.98655881 61.71772783 216.17333221 61.71942711 C211.24382546 61.72028975 206.31453658 61.70262054 201.38508058 61.68170524 C196.23610929 61.66298317 191.08713331 61.66119153 185.93813324 61.65762901 C176.18462745 61.64829539 166.43122223 61.62366379 156.67776078 61.59358054 C143.50013991 61.55381604 130.32249165 61.53759231 117.14482594 61.52007389 C96.37788038 61.49184363 75.6111471 61.43208284 54.84421539 61.37752342 C54.84421539 112.52752342 54.84421539 163.67752342 54.84421539 216.37752342 C104.73256937 216.25869566 104.73256937 216.25869566 154.62082672 216.10725975 C164.25571442 216.09370995 164.25571442 216.09370995 168.76198578 216.09119225 C171.91858456 216.08839006 175.07503296 216.07711921 178.23159027 216.06079674 C182.25394885 216.04027166 186.27608766 216.03404016 190.29849374 216.03830659 C191.77722157 216.03741402 193.25595682 216.03143413 194.73463976 216.01987803 C196.72735276 216.00502415 198.72018605 216.01032827 200.71294403 216.01675987 C201.83107892 216.01399449 202.94921381 216.01122911 204.10123158 216.00837994 C206.84421539 216.37752342 206.84421539 216.37752342 208.70361042 217.7459116 C210.36067878 220.11631361 210.22539485 221.93782398 210.23239899 224.81111717 C210.24185547 225.92236961 210.25131195 227.03362206 210.26105499 228.17854881 C210.25194595 229.97860374 210.25194595 229.97860374 210.24265289 231.81502342 C210.24695816 233.6624514 210.24695816 233.6624514 210.2513504 235.54720116 C210.25391697 238.82100299 210.24183149 242.09437879 210.22507477 245.36812401 C210.21922092 247.37562727 210.22505334 249.38273711 210.23532867 251.39021873 C210.25382519 255.24034038 210.25162532 259.08987776 210.24265289 262.94002342 C210.24872559 264.14006004 210.25479828 265.34009666 210.26105499 266.57649803 C210.24687027 268.24337669 210.24687027 268.24337669 210.23239899 269.94392967 C210.23001221 270.92305321 210.22762543 271.90217674 210.22516632 272.91097069 C209.76218852 275.9086249 209.26664425 276.59478067 206.84421539 278.37752342 C204.10123158 278.74666691 204.10123158 278.74666691 200.71294403 278.73828697 C199.42986862 278.74241096 198.14679321 278.74653496 196.82483673 278.75078392 C195.40006047 278.74016643 193.97528632 278.729262 192.55051422 278.71809959 C191.05255399 278.71725352 189.55459251 278.71772808 188.056633 278.71942711 C183.98658392 278.72028926 179.91679909 278.70262807 175.84681153 278.68170524 C171.59471358 278.66297499 167.34260983 278.66119088 163.09047699 278.65762901 C155.03692739 278.64829779 146.9834997 278.62366947 138.93000382 278.59358054 C129.76204849 278.56007002 120.59408738 278.54355896 111.42608607 278.52849424 C92.56539335 278.49712082 73.70481417 278.44433943 54.84421539 278.37752342 C54.84698077 279.47765676 54.84974615 280.57779009 54.85259533 281.7112608 C54.91912313 308.45031988 54.96845894 335.18936825 54.99965191 361.92849255 C55.0151366 374.85920524 55.0362567 387.78986334 55.07053375 400.720541 C55.10038709 411.98776287 55.11977873 423.25494521 55.12648088 434.52220553 C55.13040003 440.4909887 55.1396438 446.45965876 55.16140556 452.42840576 C55.18170649 458.0417433 55.18806217 463.65492071 55.18353844 469.26829147 C55.18436651 471.3327261 55.19037004 473.39716586 55.20183182 475.46156883 C55.21667589 478.27207598 55.21319868 481.08197211 55.20497894 483.89249229 C55.21371747 484.71641671 55.22245599 485.54034112 55.23145932 486.38923293 C55.18725935 491.94957453 55.18725935 491.94957453 53.47530347 494.08524722 C51.12730865 495.94551331 49.3807251 495.76518658 46.41062164 495.78157616 C44.74374298 495.80060242 44.74374298 495.80060242 43.04319 495.82001305 C41.84315338 495.81707741 40.64311676 495.81414177 39.40671539 495.81111717 C37.55928741 495.81897995 37.55928741 495.81897995 35.67453766 495.82700157 C32.40074899 495.83507716 29.12737781 495.82794232 25.85361481 495.81667137 C23.84603577 495.81502492 21.83902195 495.8270116 19.83152008 495.84407616 C15.98131369 495.87466723 12.13202347 495.87816654 8.28171539 495.87361717 C7.08167877 495.88485115 5.88164215 495.89608513 4.64524078 495.90765953 C3.53398834 495.89827858 2.4227359 495.88889763 1.27780914 495.87923241 C0.29868561 495.87906624 -0.68043793 495.87890007 -1.68923187 495.87872887 C-4.15578461 495.37752342 -4.15578461 495.37752342 -5.78634894 493.8527661 C-7.70751454 490.38027653 -7.56849992 487.13838312 -7.53330803 483.27243519 C-7.53766835 482.44479224 -7.54202867 481.6171493 -7.54652113 480.76442626 C-7.55752659 477.97289539 -7.54703081 475.18185336 -7.53673553 472.39032555 C-7.54019 470.37610624 -7.54495314 468.36188882 -7.55091727 466.34767538 C-7.56348581 460.79848551 -7.55723034 455.24944965 -7.54795861 449.70025909 C-7.5411924 443.7213369 -7.55163723 437.74244186 -7.55989838 431.76352501 C-7.57249054 420.72332054 -7.57136676 409.68315862 -7.56316397 398.64295384 C-7.55562416 388.44530083 -7.553644 378.24766591 -7.5572319 368.05001068 C-7.55746106 367.37418379 -7.55769021 366.69835689 -7.55792631 366.00205039 C-7.55886029 363.25881908 -7.55981549 360.51558777 -7.5608056 357.77235648 C-7.56998701 332.02773528 -7.56165506 306.28314552 -7.54551491 280.53852917 C-7.53127599 257.6524056 -7.53255282 234.7663321 -7.54689789 211.88020897 C-7.56295173 186.18186139 -7.56933754 160.48354159 -7.5600611 134.78518969 C-7.55909891 132.04719993 -7.55816039 129.30921017 -7.5572319 126.5712204 C-7.55699467 125.89703123 -7.55675744 125.22284207 -7.55651302 124.52822293 C-7.5530966 114.33482865 -7.55709883 104.14145441 -7.56467056 93.9480629 C-7.57323395 82.36172983 -7.57084469 70.77544443 -7.55482833 59.18911665 C-7.54692071 53.27287955 -7.54389629 47.35674433 -7.55377579 41.44050789 C-7.56267171 36.03165274 -7.55787464 30.62299453 -7.54184313 25.21415741 C-7.53847359 23.25057774 -7.54023766 21.28698165 -7.5474705 19.32341241 C-7.55650772 16.66762384 -7.5473241 14.01252233 -7.53330803 11.35677052 C-7.54033153 10.58287437 -7.54735503 9.80897823 -7.55459136 9.01163068 C-7.52332341 6.07563977 -7.49988357 3.9152675 -5.89192593 1.40241569 C-3.76532891 0.14702662 -2.46641781 0.00163349 0 0 Z " fill="#000064" transform="translate(436.1557846069336,414.6224765777588)"/>
<path d="M0 0 C316.8 0 633.6 0 960 0 C960 13.2 960 26.4 960 40 C643.2 40 326.4 40 0 40 C0 26.8 0 13.6 0 0 Z " fill="#000064" transform="translate(40,960)"/>
<path d="M0 0 C22.584375 -0.12375 22.584375 -0.12375 45.625 -0.25 C50.33217285 -0.28641602 55.0393457 -0.32283203 59.88916016 -0.36035156 C65.7565918 -0.37841797 65.7565918 -0.37841797 68.52645874 -0.3817749 C70.41053071 -0.38781059 72.29458992 -0.40164849 74.17855835 -0.42230225 C93.94235549 -0.62763074 112.98764128 1.36097903 131 10 C132.48886719 10.7115625 132.48886719 10.7115625 134.0078125 11.4375 C151.48855736 20.3969904 164.97591197 35.30837082 171.15625 54.0625 C178.27713912 78.85374361 176.43419627 104.27947696 164.9375 127.4375 C154.17361407 146.70279902 135.62648951 157.64072833 114.96875 164.19140625 C110.03222172 165.53596066 105.07609565 166.38893247 100 167 C99.33865051 167.08376892 98.67730103 167.16753784 97.99591064 167.25384521 C88.17348148 168.32968114 78.32339821 168.12542622 68.45703125 168.09765625 C66.70096875 168.09618309 64.9449058 168.09516469 63.18884277 168.09460449 C56.73005508 168.089395 50.27127684 168.07543381 43.8125 168.0625 C29.354375 168.041875 14.89625 168.02125 0 168 C0 112.56 0 57.12 0 0 Z " fill="#FF9902" transform="translate(358,35)"/>
<path d="M0 0 C17.16 0 34.32 0 52 0 C64.07005802 27.95171331 76.11546448 55.91284741 88.09921265 83.90158081 C95.3309055 100.79023733 102.59238651 117.6651249 109.92041016 134.51220703 C111.29088962 137.6703223 112.64820925 140.83384559 114 144 C114.66 144 115.32 144 116 144 C128.56845024 115.09659361 141.10383712 86.18027588 153.4932251 57.19958496 C157.48232338 47.86892987 161.48049347 38.54216605 165.47851562 29.21533203 C169.65287058 19.47711383 173.82634867 9.73851978 178 0 C195.16 0 212.32 0 230 0 C230 55.77 230 111.54 230 169 C218.45 169 206.9 169 195 169 C195 124.45 195 79.9 195 34 C191.82393776 37.17606224 190.46608449 40.09135559 188.796875 44.14453125 C188.48662888 44.88057083 188.17638275 45.61661041 187.85673523 46.37495422 C186.81450498 48.8513991 185.78247255 51.33197289 184.75 53.8125 C184.00612797 55.58417381 183.26139527 57.35548645 182.51586914 59.12646484 C181.31216359 61.98620257 180.10908686 64.84619122 178.90858459 67.70727539 C174.290107 78.71172412 169.60098432 89.68588283 164.91543579 100.66189575 C155.20648632 123.41193968 145.57826253 146.19461303 136 169 C122.14 169 108.28 169 94 169 C90.04 159.595 90.04 159.595 86 150 C77.28112121 129.32444201 68.46401523 108.6917844 59.60498047 88.07592773 C55.18162007 77.7790862 50.76477356 67.48054914 46.43359375 57.14453125 C46.09815048 56.34568512 45.76270721 55.54683899 45.417099 54.7237854 C43.91389175 51.14311673 42.41681082 47.56017045 40.93237305 43.97167969 C40.43133057 42.77575195 39.93028809 41.57982422 39.4140625 40.34765625 C38.9907666 39.32679932 38.5674707 38.30594238 38.13134766 37.25415039 C37.20880547 34.85490807 37.20880547 34.85490807 35 34 C35 78.55 35 123.1 35 169 C23.45 169 11.9 169 0 169 C0 113.23 0 57.46 0 0 Z " fill="#FF9902" transform="translate(94,34)"/>
<path d="M0 0 C68.76923077 0 68.76923077 0 84.6875 14.4375 C85.450625 15.283125 86.21375 16.12875 87 17 C87.46921875 17.46535156 87.9384375 17.93070313 88.421875 18.41015625 C100.89280275 31.49177376 103.62958344 51.57305842 103.47485352 68.87426758 C102.91226794 86.60740117 97.62524831 103.36156766 85.625 116.625 C61.31500743 138.61975518 32.73885209 132 0 132 C0 88.44 0 44.88 0 0 Z " fill="#FFFEFE" transform="translate(393,53)"/>
<path d="M0 0 C1.69702561 1.52766867 3.32648917 3.08989895 4.91796875 4.7265625 C3.28980435 8.48386497 0.90394958 11.3433855 -1.70703125 14.4765625 C-2.93292969 15.95382813 -2.93292969 15.95382813 -4.18359375 17.4609375 C-4.81007813 18.20859375 -5.4365625 18.95625 -6.08203125 19.7265625 C-7.22873509 18.87356482 -8.37432059 18.01906383 -9.51953125 17.1640625 C-10.25816406 16.61492187 -10.99679687 16.06578125 -11.7578125 15.5 C-13.23833887 14.37032105 -14.69726055 13.21132267 -16.125 12.015625 C-32.34943007 -1.43878042 -53.24878664 -7.16868406 -74.08203125 -5.2734375 C-87.59065761 -3.77100169 -101.99757418 1.04900649 -111.08203125 11.7265625 C-116.8267539 19.50447581 -121.53826132 27.32232215 -124.08203125 36.7265625 C-124.52675781 38.29664062 -124.52675781 38.29664062 -124.98046875 39.8984375 C-130.60443607 63.11665119 -127.97676798 89.13782736 -116.26953125 110.0390625 C-108.1590483 122.77231436 -95.40568483 130.20900228 -80.94921875 133.8203125 C-75.7126306 134.93938497 -70.6080146 135.03131142 -65.26953125 134.9765625 C-64.29612793 134.96834473 -63.32272461 134.96012695 -62.31982422 134.95166016 C-42.73627621 134.64725267 -23.713357 128.58151779 -9.01953125 115.1640625 C-6.08203125 112.7265625 -6.08203125 112.7265625 -4.1953125 112.73828125 C-1.06774425 114.20089635 0.51940099 116.426385 2.66796875 119.1015625 C3.86679687 120.56722656 3.86679687 120.56722656 5.08984375 122.0625 C6.91796875 124.7265625 6.91796875 124.7265625 6.91796875 127.7265625 C-15.31943119 148.7216496 -46.37112553 154.62188678 -75.82421875 154.01171875 C-99.45052327 153.15693722 -122.30955285 145.67287798 -140.08203125 129.7265625 C-140.99662109 128.95119141 -140.99662109 128.95119141 -141.9296875 128.16015625 C-157.23347261 114.25079347 -164.10373426 92.92537304 -165.24609375 72.84228516 C-166.19325188 48.32272914 -162.50713561 24.6677532 -145.76953125 5.5390625 C-144.22546542 3.91714461 -142.6628865 2.31264372 -141.08203125 0.7265625 C-140.33308594 -0.04558594 -139.58414063 -0.81773438 -138.8125 -1.61328125 C-125.20423144 -14.81533284 -106.6386708 -21.21954947 -88.08203125 -23.2734375 C-86.74978516 -23.43972656 -86.74978516 -23.43972656 -85.390625 -23.609375 C-54.49834582 -27.01627315 -24.14347886 -20.19574996 0 0 Z " fill="#FF9A02" transform="translate(910.08203125,54.2734375)"/>
<path d="M0 0 C1.69702561 1.52766867 3.32648917 3.08989895 4.91796875 4.7265625 C3.28980435 8.48386497 0.90394958 11.3433855 -1.70703125 14.4765625 C-2.93292969 15.95382813 -2.93292969 15.95382813 -4.18359375 17.4609375 C-4.81007813 18.20859375 -5.4365625 18.95625 -6.08203125 19.7265625 C-7.22873509 18.87356482 -8.37432059 18.01906383 -9.51953125 17.1640625 C-10.25816406 16.61492187 -10.99679687 16.06578125 -11.7578125 15.5 C-13.23833887 14.37032105 -14.69726055 13.21132267 -16.125 12.015625 C-32.34943007 -1.43878042 -53.24878664 -7.16868406 -74.08203125 -5.2734375 C-87.59065761 -3.77100169 -101.99757418 1.04900649 -111.08203125 11.7265625 C-116.8267539 19.50447581 -121.53826132 27.32232215 -124.08203125 36.7265625 C-124.52675781 38.29664062 -124.52675781 38.29664062 -124.98046875 39.8984375 C-130.60443607 63.11665119 -127.97676798 89.13782736 -116.26953125 110.0390625 C-108.1590483 122.77231436 -95.40568483 130.20900228 -80.94921875 133.8203125 C-75.7126306 134.93938497 -70.6080146 135.03131142 -65.26953125 134.9765625 C-64.29612793 134.96834473 -63.32272461 134.96012695 -62.31982422 134.95166016 C-42.73627621 134.64725267 -23.713357 128.58151779 -9.01953125 115.1640625 C-6.08203125 112.7265625 -6.08203125 112.7265625 -4.1953125 112.73828125 C-1.06774425 114.20089635 0.51940099 116.426385 2.66796875 119.1015625 C3.86679687 120.56722656 3.86679687 120.56722656 5.08984375 122.0625 C6.91796875 124.7265625 6.91796875 124.7265625 6.91796875 127.7265625 C-15.31943119 148.7216496 -46.37112553 154.62188678 -75.82421875 154.01171875 C-99.45052327 153.15693722 -122.30955285 145.67287798 -140.08203125 129.7265625 C-140.99662109 128.95119141 -140.99662109 128.95119141 -141.9296875 128.16015625 C-157.23347261 114.25079347 -164.10373426 92.92537304 -165.24609375 72.84228516 C-166.19325188 48.32272914 -162.50713561 24.6677532 -145.76953125 5.5390625 C-144.22546542 3.91714461 -142.6628865 2.31264372 -141.08203125 0.7265625 C-140.33308594 -0.04558594 -139.58414063 -0.81773438 -138.8125 -1.61328125 C-125.20423144 -14.81533284 -106.6386708 -21.21954947 -88.08203125 -23.2734375 C-86.74978516 -23.43972656 -86.74978516 -23.43972656 -85.390625 -23.609375 C-54.49834582 -27.01627315 -24.14347886 -20.19574996 0 0 Z " fill="#FF9A02" transform="translate(720.08203125,54.2734375)"/>
</svg>
